PathFileType	4	(X/Y/Z)	Patient5_TMGait_0pt45_1_left_02.trc.trc
DataRate	CameraRate	NumFrames	NumMarkers	Units	OrigDataRate	OrigDataStartFrame	OrigNumFrames
59.322033898305	59.322033898305	4	32	mm	59.322033898305	124	       141
Frame#	Time	R.ASIS			L.ASIS			Chest			R.Shoulder			Neck			L.Shoulder			L.Elbow			L.Wrist			R.Elbow			R.Wrist			L.Thigh.Superior			L.Thigh.Lateral			L.Thigh.Inferior			L.Patella			L.Shank.Superior			L.Shank.Lateral			L.Shank.Inferior			L.Heel			L.Midfoot.Lateral			L.Midfoot.Superior			L.Toe			R.Thigh.Superior			R.Thigh.Lateral			R.Thigh.Inferior			R.Patella			R.Shank.Superior			R.Shank.Lateral			R.Shank.Inferior			R.Heel			R.Midfoot.Lateral			R.Midfoot.Superior			R.Toe			
		X1	Y1	Z1	X2	Y2	Z2	X3	Y3	Z3	X4	Y4	Z4	X5	Y5	Z5	X6	Y6	Z6	X7	Y7	Z7	X8	Y8	Z8	X9	Y9	Z9	X10	Y10	Z10	X11	Y11	Z11	X12	Y12	Z12	X13	Y13	Z13	X14	Y14	Z14	X15	Y15	Z15	X16	Y16	Z16	X17	Y17	Z17	X18	Y18	Z18	X19	Y19	Z19	X20	Y20	Z20	X21	Y21	Z21	X22	Y22	Z22	X23	Y23	Z23	X24	Y24	Z24	X25	Y25	Z25	X26	Y26	Z26	X27	Y27	Z27	X28	Y28	Z28	X29	Y29	Z29	X30	Y30	Z30	X31	Y31	Z31	X32	Y32	Z32	

124	3.773428571429	944.693552948051	958.726299822358	633.312470272890	933.427228526434	946.101848804651	394.899622775169	1033.136215366458	1413.628813717236	523.976036706224	950.534644009527	1479.269074431704	697.253034773194	907.701051346588	1540.912917566871	516.480806691962	961.259210013582	1487.606098673531	331.979693538606	853.290674452605	1171.746053925294	214.428839896373	975.097018128260	911.743259471260	209.889175659563	888.063611264510	1163.941108588105	853.553887543992	1079.095449130515	956.735918568092	784.421575333095	986.827605828738	754.532043723326	360.998611008714	937.019269028693	670.542091980340	318.226719679863	1032.454566135293	638.056365256673	373.966030718757	1078.229160597996	530.934804664368	367.882643750976	1061.421820932370	421.119725094193	387.028835217706	1001.690525433668	340.781455337552	315.066657834017	1065.095541613900	293.822845028284	390.237913206798	995.967789866996	45.697642004773	383.117247391742	1081.956687305430	33.702843533041	316.390446723726	1170.803286844095	109.433408760774	352.161307759738	1280.829222538867	85.791056217211	347.307758428918	917.145080422551	723.277939215291	643.265338336555	815.915037292900	659.973317366371	694.072724539342	880.728184927254	596.211146038744	615.954755941265	864.557845950027	501.358900369045	639.313153190120	810.055306407032	415.890930133214	599.829608110556	735.812714501415	352.610268044322	681.017071130487	781.889524013069	279.359050942806	595.369172221698	640.890820314217	55.031504980249	559.382778092185	722.398801127166	25.259258390277	628.802457484751	827.005061286144	86.951059868273	601.572296565757	930.316430087300	44.367460989821	595.868899091463	
125	3.790285714286	946.085850979680	958.892690265133	631.785274830358	938.679669414342	945.362614744281	393.525853870664	1033.738661322392	1414.270283817422	521.432130423131	947.900231261249	1479.914872999985	693.241432516622	907.721744798656	1540.469064045023	511.654254841318	963.832090852070	1486.934832226977	328.097344318571	859.408090185496	1169.993705509806	210.225410121260	980.072702918649	909.432963912981	207.897650383470	884.960177883034	1164.162622489104	848.929999634022	1076.712254369467	956.718450974337	782.388706969274	991.440705958538	751.260396567300	361.987892207741	940.450991978898	667.481993624649	319.873980691768	1034.159705421768	633.875652560730	377.771523263721	1077.614619833320	527.484498592918	374.621271470910	1060.462674457274	417.516996462469	392.240241137194	1003.685004890307	337.783147320108	318.170514490786	1064.219210501359	290.474633583764	394.531654904495	994.214183035847	45.861652348261	383.990253524521	1081.340365602401	31.686628556509	319.133728233761	1171.155284053792	104.407545269764	358.060986194493	1280.797790506861	77.483061573648	355.590098842899	918.001516272204	722.870358653785	642.097541413952	815.777326787429	660.241479312587	692.093902953279	880.908895741511	595.788494304393	614.886069693345	863.468972766361	500.837241755745	638.446536223476	808.025545336104	415.312127768946	598.861058807289	732.192619352704	353.579137190232	679.750964066580	777.812876940637	279.218567658718	594.836689787969	633.441700500535	55.715631861325	559.566313460686	714.922532462729	25.448026776052	628.780473587798	819.697801456061	87.019517190904	601.784776255008	922.762884889180	44.207492434275	595.903608394970	
126	3.807142857143	947.558166317795	959.294609200131	629.988383416671	943.969935432490	945.176441341527	391.889075167861	1034.487696964886	1415.296891988047	518.704864918053	945.270570811311	1480.920166302265	689.072805083089	907.903578529991	1540.400156772523	506.619438467475	966.613710380227	1486.630028025654	324.070901321191	865.926726907820	1168.646717679670	205.791439535704	985.245110647794	907.436237267231	205.608566447810	881.215667797382	1164.673819899589	843.724385201098	1074.228800753979	957.456879363936	780.277137760218	997.161418151660	749.664220861377	363.709473710514	945.915803520013	666.143118059612	321.245427263800	1037.277594057852	631.372146638436	381.892056893318	1078.406116965125	524.858424105800	381.067322113787	1059.756364512471	414.516754930426	396.647814232423	1005.932300401528	336.105872310879	319.912879556494	1062.234045735049	287.723867099665	397.933822277260	988.990668095973	46.683350528524	384.302919983411	1076.978301932547	30.172921905261	320.987527063027	1168.255585182628	99.608651869230	362.661457355414	1277.375000777348	68.815107362892	362.176089788442	919.053764634477	722.649854881253	640.789332570841	815.923888683247	660.665239591484	690.016789477655	881.355565653858	595.528988899096	613.705771954064	862.705184776197	500.501316820060	637.506782009074	806.298453543084	414.828309572703	597.854095244983	728.899521675184	354.757999554841	678.486958416583	773.968493551704	279.230396546232	594.312414019645	626.083674702810	56.791530547023	559.848382792109	707.504907257288	25.775992854576	628.793153743692	812.539553398855	87.140493173838	602.086036021576	915.247603050309	44.016983589508	595.951850250954	
127	3.824000000000	949.016495739681	959.947013611010	627.918822058098	949.135040158146	945.561785988420	389.964089577643	1035.450368818204	1416.651722434761	515.806278099044	942.907825702816	1482.311593905508	684.799692235962	908.363113245027	1540.763551481348	501.458456037306	969.686478570053	1486.681150607269	319.956324233226	872.712846392444	1167.753467746833	201.245967191091	990.589159611411	905.862253105301	202.989643673166	876.865997904327	1165.560827711696	837.953068375279	1071.577325572782	958.939205753312	778.120163477806	1003.606356559682	749.703852118105	365.872703361518	952.977726212716	666.440627362393	322.113983979828	1041.520325496681	630.488856075615	385.854540241733	1080.368186104313	523.098422225287	386.618673437378	1059.415631557629	412.256819621888	399.904166995394	1008.381586568145	335.582573056081	320.235174528806	1059.631994706026	285.681469464271	400.216335152275	981.649541196553	47.695639457229	384.113572050043	1070.225749359206	29.084787908013	321.932628789848	1163.068877554017	95.562344094127	365.700193241004	1271.659628009203	60.982852174689	366.720153243983	920.128007163303	722.696423934637	639.343626977649	816.212901232420	661.304800488214	687.837768220236	881.927256947604	595.510798475175	612.400717938686	862.172410263413	500.415146940354	636.482055990104	804.797503973355	414.509307906942	596.802864776767	725.865660062990	356.181385100392	677.212786905355	770.305823929540	279.452137732502	593.789696239815	618.853434666208	58.348003120026	560.194726771253	700.150540539100	26.313171197499	628.833839137952	805.558645197767	87.319547288047	602.478254870955	907.778070433912	43.792332392218	596.009525548770	
